# xmcd CD database file
#
# Track frame offsets:
#	150
#	11517
#	25211
#	34115
#	46714
#	58840
#	71079
#	83052
#	94886
#	105646
#	113633
#	123383
#
# Disc length: 1761 seconds
#
# Revision: 0
# Processed by: cddbd v1.5.2PL0 Copyright (c) Steve Scherf et al.
# Submitted via: CDex 1.70beta3
#
DISCID=9506df0c
DTITLE=Michel Legrand - Les Demoiselles De Rochefort (La Version Orchestrale)
DYEAR=1967
DGENRE=Jazz
TTITLE0=Theme Du Concerto
TTITLE1=Chanson De Maxence
TTITLE2=La Chanson D'un Jour D'ete
TTITLE3=Chanson De Simon
TTITLE4=La Femme Coupee En Morceaux
TTITLE5=Toujours Jamais
TTITLE6=Marins, Amis, Amants Ou Maris
TTITLE7=Les Rencontres
TTITLE8=De Delphine A Lancien
TTITLE9=Nous Voyageons De Ville En Ville
TTITLE10=Chanson De Jumelles
TTITLE11=Chanson De Solange
EXTD=YEAR: 1967
EXTT0=
EXTT1=
EXTT2=
EXTT3=
EXTT4=
EXTT5=
EXTT6=
EXTT7=
EXTT8=
EXTT9=
EXTT10=
EXTT11=
PLAYORDER=
